<svg width="652" height="432" viewBox="0 0 652 432" fill="none" xmlns="http://www.w3.org/2000/svg">
<g filter="url(#filter0_d_7_2079)">
<rect x="50" y="25" width="552" height="332" rx="16" fill="url(#paint0_linear_7_2079)"/>
</g>
<rect x="82" y="57" width="488" height="268" rx="12" fill="white"/>
<rect x="106" y="81" width="12" height="12" rx="6" fill="#FF5630"/>
<rect x="130" y="81" width="12" height="12" rx="6" fill="#FFAB00"/>
<rect x="154" y="81" width="12" height="12" rx="6" fill="#00A76F"/>
<rect x="106" y="109" width="440" height="56" rx="8" fill="#F9FAFB"/>
<rect x="118" y="121" width="32" height="32" rx="16" fill="url(#paint1_linear_7_2079)"/>
<rect x="162" y="127" width="252" height="8" rx="4" fill="#DFE3E8"/>
<rect x="162" y="139" width="168" height="8" rx="4" fill="#DFE3E8"/>
<rect x="510" y="125" width="24" height="24" rx="4" fill="#00A76F"/>
<rect x="106" y="177" width="440" height="56" rx="8" fill="#F9FAFB"/>
<rect x="118" y="189" width="32" height="32" rx="16" fill="url(#paint2_linear_7_2079)"/>
<rect x="162" y="195" width="224" height="8" rx="4" fill="#DFE3E8"/>
<rect x="162" y="207" width="252" height="8" rx="4" fill="#DFE3E8"/>
<rect x="510" y="193" width="24" height="24" rx="4" fill="#00A76F"/>
<rect x="106" y="245" width="440" height="56" rx="8" fill="#F9FAFB"/>
<rect x="118" y="257" width="32" height="32" rx="16" fill="url(#paint3_linear_7_2079)"/>
<rect x="162" y="263" width="269" height="8" rx="4" fill="#DFE3E8"/>
<rect x="162" y="275" width="112" height="8" rx="4" fill="#DFE3E8"/>
<rect x="510" y="261" width="24" height="24" rx="4" fill="#00A76F"/>
<defs>
<filter id="filter0_d_7_2079" x="0" y="0" width="652" height="432" filterUnits="userSpaceOnUse" color-interpolation-filters="sRGB">
<feFlood flood-opacity="0" result="BackgroundImageFix"/>
<feColorMatrix in="SourceAlpha" type="matrix" values="0 0 0 0 0 0 0 0 0 0 0 0 0 0 0 0 0 0 127 0" result="hardAlpha"/>
<feOffset dy="25"/>
<feGaussianBlur stdDeviation="25"/>
<feColorMatrix type="matrix" values="0 0 0 0 0 0 0 0 0 0 0 0 0 0 0 0 0 0 0.25 0"/>
<feBlend mode="normal" in2="BackgroundImageFix" result="effect1_dropShadow_7_2079"/>
<feBlend mode="normal" in="SourceGraphic" in2="effect1_dropShadow_7_2079" result="shape"/>
</filter>
<linearGradient id="paint0_linear_7_2079" x1="50" y1="191" x2="602" y2="191" gradientUnits="userSpaceOnUse">
<stop offset="1" stop-color="#2EC685"/>
<stop stop-color="#00A76F"/>
</linearGradient>
<linearGradient id="paint1_linear_7_2079" x1="118" y1="137" x2="150" y2="137" gradientUnits="userSpaceOnUse">
<stop offset="1" stop-color="#2EC685"/>
<stop stop-color="#00A76F"/>
</linearGradient>
<linearGradient id="paint2_linear_7_2079" x1="118" y1="205" x2="150" y2="205" gradientUnits="userSpaceOnUse">
<stop offset="1" stop-color="#2EC685"/>
<stop stop-color="#00A76F"/>
</linearGradient>
<linearGradient id="paint3_linear_7_2079" x1="118" y1="273" x2="150" y2="273" gradientUnits="userSpaceOnUse">
<stop offset="1" stop-color="#2EC685"/>
<stop stop-color="#00A76F"/>
</linearGradient>
</defs>
</svg>
