<svg width="144" height="21" viewBox="0 0 144 21" fill="none" xmlns="http://www.w3.org/2000/svg">
<path d="M126.952 8.34961L125.162 8.63965C125.235 8.81957 125.292 9.01316 125.332 9.21973C125.372 9.42639 125.392 9.59714 125.392 9.73047C125.392 10.3303 125.216 10.8903 124.862 11.4102C124.516 11.9302 123.992 12.3499 123.292 12.6699C122.599 12.9899 121.739 13.1504 120.712 13.1504C120.585 13.1504 120.415 13.1463 120.202 13.1396C119.996 13.133 119.826 13.1237 119.692 13.1104C119.299 13.1304 119.029 13.1798 118.882 13.2598C118.735 13.3398 118.662 13.4334 118.662 13.54C118.662 13.7 118.812 13.807 119.112 13.8604C119.412 13.907 119.865 13.9503 120.472 13.9902C120.685 14.0036 120.982 14.02 121.362 14.04C121.742 14.06 122.162 14.0868 122.622 14.1201C123.889 14.2068 124.832 14.5197 125.452 15.0596C126.079 15.5929 126.392 16.2667 126.392 17.0801C126.392 18.0467 125.932 18.8431 125.012 19.4697C124.098 20.103 122.719 20.4199 120.872 20.4199C119.032 20.4199 117.632 20.1864 116.672 19.7197C115.719 19.2531 115.242 18.6398 115.242 17.8799C115.242 17.5266 115.336 17.2302 115.522 16.9902C115.709 16.7503 115.925 16.5599 116.172 16.4199C116.425 16.2733 116.656 16.1632 116.862 16.0898C117.075 16.0099 117.205 15.9563 117.252 15.9297C117.145 15.8697 116.992 15.7832 116.792 15.6699C116.592 15.55 116.406 15.3902 116.232 15.1904C116.066 14.9838 115.982 14.7163 115.982 14.3896C115.983 14.0232 116.155 13.6833 116.502 13.3701C116.855 13.0568 117.388 12.8397 118.102 12.7197C117.422 12.3997 116.905 11.9665 116.552 11.4199C116.199 10.8734 116.023 10.3134 116.022 9.74023C116.022 9.06027 116.235 8.47688 116.662 7.99023C117.089 7.50357 117.669 7.13322 118.402 6.87988C119.142 6.62662 119.979 6.5 120.912 6.5C121.625 6.50001 122.209 6.57714 122.662 6.73047C123.115 6.87709 123.535 7.0697 123.922 7.30957C124.075 7.24957 124.279 7.17341 124.532 7.08008C124.785 6.98013 125.058 6.87303 125.352 6.75977C125.645 6.63979 125.932 6.52347 126.212 6.41016C126.492 6.29016 126.742 6.18317 126.962 6.08984L126.952 8.34961ZM6.47559 7.93652C10.0904 1.61185 13.8275 -4.34729 18.1201 4.39355C18.7073 5.51724 19.135 7.7011 20.0938 7.70117V7.71289C21.0523 7.71289 21.4803 5.5291 22.0674 4.40527C26.3599 -4.33572 30.097 1.62259 33.7119 7.94727C33.984 8.42417 34.2453 8.87989 34.4688 9.27539C26.1845 4.03129 26.8821 19.8741 20.0938 20V19.9893C16.5961 19.9244 15.0842 15.6872 13.3086 12.3115C11.9304 14.821 11.019 16.3532 10.5732 16.9072C9.73274 17.9517 8.81521 18.7429 7.6875 19.1992C5.31676 20.3134 2.36964 20.3658 0.09375 18.9883L5.74609 9.24707C5.89873 9.15107 6.04869 9.06234 6.19531 8.98047C6.03995 9.06721 5.88086 9.16105 5.71875 9.26367C5.9423 8.86821 6.20367 8.41321 6.47559 7.93652ZM34.1562 12.5C36.2273 12.5 37.9062 14.179 37.9062 16.25C37.9062 18.321 36.2273 20 34.1562 20C32.0852 20 30.4062 18.321 30.4062 16.25C30.4063 14.179 32.0853 12.5 34.1562 12.5ZM119.662 16.3604C119.355 16.347 119.082 16.3933 118.842 16.5C118.609 16.6067 118.425 16.7538 118.292 16.9404C118.165 17.127 118.102 17.3268 118.102 17.54C118.102 17.9733 118.365 18.2902 118.892 18.4902C119.418 18.6902 120.235 18.79 121.342 18.79C122.155 18.79 122.735 18.6902 123.082 18.4902C123.429 18.2902 123.602 18.0032 123.602 17.6299C123.602 17.3167 123.469 17.0634 123.202 16.8701C122.936 16.6701 122.545 16.5529 122.032 16.5195L119.662 16.3604ZM109.282 6.45996C110.302 6.45999 111.185 6.68338 111.932 7.12988C112.678 7.56985 113.255 8.19651 113.662 9.00977C114.069 9.82301 114.272 10.7831 114.272 11.8896C114.272 12.9296 114.072 13.8504 113.672 14.6504C113.279 15.4435 112.708 16.0663 111.962 16.5195C111.222 16.9728 110.326 17.2001 109.272 17.2002C108.259 17.2002 107.375 16.9831 106.622 16.5498C105.875 16.1165 105.295 15.5033 104.882 14.71C104.475 13.9167 104.272 12.9763 104.272 11.8896C104.273 10.8032 104.475 9.85326 104.882 9.04004C105.295 8.22671 105.875 7.59298 106.622 7.13965C107.375 6.68639 108.262 6.45996 109.282 6.45996ZM56.1699 12.8496L59.5098 2.54004H63.7402V17H60.79V5.94043L57.3096 17H55.0195L51.5596 5.99023V17H48.6201V2.54004H52.8604L56.1699 12.8496ZM70.0098 9.16016L75.2793 2.54004H78.6289L74.2393 8.13965L79.1592 17H75.9795L72.1494 10.2695L70.0098 12.8496V17H66.9795V2.54004H70.0098V9.16016ZM91.7822 5.13965H87.5117V17H84.582V5.13965H80.2119V2.54004H91.7822V5.13965ZM96.7158 14.5303H102.996V17H93.7764V2.54004H96.7158V14.5303ZM131.581 17H128.791V6.66016H131.581V17ZM140.155 6.57031C140.789 6.57033 141.378 6.69382 141.925 6.94043C142.478 7.1871 142.926 7.57702 143.266 8.11035C143.605 8.63689 143.775 9.32675 143.775 10.1797V17H140.855V10.54C140.855 9.98021 140.689 9.56027 140.355 9.28027C140.022 9.00027 139.615 8.86035 139.135 8.86035C138.815 8.8604 138.505 8.91699 138.205 9.03027C137.912 9.14359 137.672 9.31345 137.485 9.54004C137.299 9.76668 137.205 10.0466 137.205 10.3799V17H134.285V6.66016H137.155V8.12012C137.315 7.86678 137.522 7.62298 137.775 7.38965C138.035 7.14981 138.362 6.95307 138.755 6.7998C139.148 6.64647 139.615 6.57031 140.155 6.57031ZM109.282 8.61035C108.769 8.61035 108.352 8.75343 108.032 9.04004C107.719 9.32004 107.488 9.70376 107.342 10.1904C107.195 10.6703 107.122 11.2036 107.122 11.79C107.122 12.3299 107.189 12.8497 107.322 13.3496C107.456 13.8429 107.679 14.2463 107.992 14.5596C108.306 14.8729 108.736 15.0303 109.282 15.0303C109.795 15.0302 110.209 14.88 110.522 14.5801C110.836 14.2802 111.062 13.8868 111.202 13.4004C111.349 12.9071 111.422 12.37 111.422 11.79C111.422 11.2434 111.355 10.7269 111.222 10.2402C111.095 9.75358 110.876 9.35957 110.562 9.05957C110.249 8.75961 109.822 8.61039 109.282 8.61035ZM13.2334 12.1709C13.1808 12.0721 13.1283 11.974 13.0752 11.877C13.1283 11.974 13.1808 12.0721 13.2334 12.1709ZM12.9033 11.5703C12.8532 11.482 12.8038 11.394 12.7529 11.3076C12.8038 11.394 12.8532 11.482 12.9033 11.5703ZM120.792 8.04004C120.245 8.04005 119.799 8.20361 119.452 8.53027C119.112 8.85693 118.942 9.29011 118.942 9.83008C118.942 10.3432 119.105 10.753 119.432 11.0596C119.765 11.3662 120.219 11.5195 120.792 11.5195C121.345 11.5195 121.789 11.3702 122.122 11.0703C122.462 10.7637 122.632 10.35 122.632 9.83008C122.632 9.29016 122.462 8.85692 122.122 8.53027C121.789 8.20361 121.345 8.04004 120.792 8.04004ZM12.5684 11.0039C12.5012 10.8954 12.4349 10.788 12.3662 10.6836C12.4349 10.788 12.5012 10.8954 12.5684 11.0039ZM12.1543 10.3721C12.1158 10.3176 12.0771 10.2639 12.0381 10.2109C12.0771 10.2639 12.1158 10.3176 12.1543 10.3721ZM11.9619 10.1084C11.9244 10.0589 11.8857 10.0109 11.8477 9.96289C11.8857 10.0109 11.9244 10.0589 11.9619 10.1084ZM11.793 9.89355C11.7482 9.83839 11.7028 9.78451 11.6572 9.73145C11.7028 9.78452 11.7482 9.83839 11.793 9.89355ZM11.6035 9.66895C11.5604 9.61996 11.5165 9.57241 11.4727 9.52539C11.5165 9.57241 11.5604 9.61996 11.6035 9.66895ZM11.4033 9.45215C11.3659 9.41328 11.3281 9.37526 11.29 9.33789C11.3281 9.37527 11.3659 9.41328 11.4033 9.45215ZM11.1953 9.24707C11.1579 9.21205 11.12 9.17806 11.082 9.14453C11.12 9.17807 11.1579 9.21205 11.1953 9.24707ZM11 9.07324C10.9605 9.03994 10.921 9.00723 10.8809 8.97559C10.921 9.00723 10.9605 9.03994 11 9.07324ZM10.7871 8.9043C10.7483 8.87531 10.7094 8.84674 10.6699 8.81934C10.7094 8.84674 10.7483 8.87531 10.7871 8.9043ZM10.5527 8.74121C10.5252 8.72354 10.4975 8.70634 10.4697 8.68945C10.4975 8.70634 10.5252 8.72354 10.5527 8.74121ZM10.3242 8.60645C10.2927 8.58923 10.2614 8.57186 10.2295 8.55566C10.2614 8.57187 10.2927 8.58923 10.3242 8.60645ZM10.1016 8.49512C10.0665 8.47912 10.0316 8.46301 9.99609 8.44824C10.0316 8.46302 10.0665 8.47912 10.1016 8.49512ZM9.86719 8.39844C9.82613 8.38337 9.7849 8.36888 9.74316 8.35547C9.7849 8.36888 9.82613 8.38337 9.86719 8.39844ZM9.62793 8.32129C9.58394 8.30896 9.53988 8.29661 9.49512 8.28613C9.53988 8.29661 9.58393 8.30896 9.62793 8.32129ZM7.93164 8.29297C7.89011 8.30187 7.84777 8.30907 7.80566 8.31934C7.84777 8.30907 7.89011 8.30187 7.93164 8.29297ZM9.36719 8.25977C9.32514 8.25174 9.28297 8.24368 9.24023 8.2373C9.28297 8.24368 9.32514 8.25174 9.36719 8.25977ZM8.25391 8.23633C8.20842 8.24246 8.16241 8.24803 8.11621 8.25586C8.16241 8.24803 8.20842 8.24246 8.25391 8.23633ZM9.09277 8.21973C9.05361 8.21571 9.01435 8.21064 8.97461 8.20801C9.01435 8.21064 9.05361 8.21571 9.09277 8.21973ZM8.55078 8.20801C8.50143 8.21077 8.45158 8.21294 8.40137 8.21777C8.45158 8.21294 8.50143 8.21077 8.55078 8.20801ZM8.69531 8.20117C8.73665 8.20052 8.77763 8.20232 8.81836 8.20312C8.77763 8.20232 8.73665 8.20052 8.69531 8.20117ZM131.61 5.17969H128.771V2.5498H131.61V5.17969Z" fill="url(#paint0_linear_18_16)"/>
<defs>
<linearGradient id="paint0_linear_18_16" x1="47" y1="10" x2="145" y2="10" gradientUnits="userSpaceOnUse">
<stop offset="1" stop-color="#2EC685"/>
<stop stop-color="#01A76F"/>
</linearGradient>
</defs>
</svg>
